<svg version="1.1" id="Layer_1" xmlns="http://www.w3.org/2000/svg" xmlns:xlink="http://www.w3.org/1999/xlink" x="0px" y="0px"
	 width="100%" viewBox="0 0 300 300" enable-background="new 0 0 300 300" xml:space="preserve">
<path fill="#000000" opacity="1.000000" stroke="none" 
	d="
M193.000000,301.000000 
	C128.666672,301.000000 64.833359,301.000000 1.000026,301.000000 
	C1.000017,201.000031 1.000017,101.000061 1.000009,1.000066 
	C100.999947,1.000044 200.999893,1.000044 300.999878,1.000022 
	C300.999939,100.999939 300.999939,200.999878 300.999969,300.999908 
	C265.166656,301.000000 229.333328,301.000000 193.000000,301.000000 
M156.852890,73.967537 
	C151.285248,76.065292 144.933548,77.099144 140.323624,80.496452 
	C132.308426,86.403328 131.065292,95.742203 132.156662,105.961792 
	C120.125977,99.230972 109.242676,100.713440 99.486610,108.437057 
	C97.186592,110.257927 93.502777,113.406456 95.190628,117.293884 
	C99.662643,116.905769 103.857140,115.636368 107.616180,116.429840 
	C113.116043,117.590790 118.255028,120.374641 123.639397,122.196129 
	C128.164581,123.726959 132.746658,124.116508 137.347778,121.444084 
	C134.671173,118.185463 132.419342,115.443962 130.167511,112.702469 
	C130.455841,112.429100 130.744171,112.155731 131.032486,111.882362 
	C134.172699,113.948448 137.312897,116.014526 140.650421,118.210434 
	C139.941971,112.621429 139.290405,107.481071 138.638840,102.340714 
	C140.279800,105.699783 141.089951,109.140366 141.994797,112.555862 
	C142.857620,115.812798 145.180237,115.818764 147.215530,114.152649 
	C148.731750,112.911484 149.521500,110.782852 150.851028,109.705849 
	C151.018188,110.171936 151.303192,110.630257 151.334503,111.105301 
	C151.694916,116.571655 151.744583,116.688141 156.812515,114.066505 
	C160.588974,112.112946 164.306488,109.989929 167.823792,107.607971 
	C170.779678,105.606201 172.469101,102.953987 172.228699,98.874008 
	C171.819061,91.921959 171.975555,84.920441 172.217773,77.950951 
	C172.428360,71.891731 170.656143,65.809593 173.786774,59.731461 
	C175.288040,56.816738 174.388885,52.233223 170.195953,51.233463 
	C167.190948,50.516949 163.326294,50.690739 160.636963,52.042561 
	C157.161865,53.789356 157.362335,57.996693 159.024612,60.990471 
	C161.731689,65.865959 159.293060,69.745544 156.852890,73.967537 
M139.173248,163.029739 
	C148.226379,161.888321 157.401093,161.303101 166.279449,159.362183 
	C170.485886,158.442566 175.148071,155.763046 177.843079,152.449036 
	C188.700150,139.098160 192.921814,124.081612 187.255524,107.014381 
	C185.128311,100.607063 182.387344,97.597313 176.425888,97.787613 
	C179.436874,104.005638 175.888718,108.384377 171.570496,111.474442 
	C154.872818,123.423172 136.253845,129.885666 115.514420,129.858414 
	C111.450668,129.853073 108.421051,128.961594 106.555527,125.107780 
	C106.136436,124.242020 104.532852,123.044952 104.131462,123.255096 
	C103.159805,123.763824 101.822830,125.144562 101.962646,125.940193 
	C102.640800,129.799393 102.912376,134.096725 104.866402,137.300537 
	C112.671204,150.097290 123.792030,158.953308 139.173248,163.029739 
M126.210297,85.043411 
	C125.578537,84.904442 124.877609,84.517258 124.327309,84.670609 
	C122.239326,85.252464 118.817215,85.568901 118.427933,86.791458 
	C117.594505,89.408791 116.509888,93.520599 120.996109,94.369308 
	C123.035797,94.755188 125.964638,94.046227 127.493599,92.701118 
	C129.927704,90.559685 129.168747,87.697540 126.210297,85.043411 
z"/>
<path fill="#6A5845" opacity="1.000000" stroke="none" 
	d="
M138.779816,163.072510 
	C123.792030,158.953308 112.671204,150.097290 104.866402,137.300537 
	C102.912376,134.096725 102.640800,129.799393 101.962646,125.940193 
	C101.822830,125.144562 103.159805,123.763824 104.131462,123.255096 
	C104.532852,123.044952 106.136436,124.242020 106.555527,125.107780 
	C108.421051,128.961594 111.450668,129.853073 115.514420,129.858414 
	C136.253845,129.885666 154.872818,123.423172 171.570496,111.474442 
	C175.888718,108.384377 179.436874,104.005638 176.425888,97.787613 
	C182.387344,97.597313 185.128311,100.607063 187.255524,107.014381 
	C192.921814,124.081612 188.700150,139.098160 177.843079,152.449036 
	C175.148071,155.763046 170.485886,158.442566 166.279449,159.362183 
	C157.401093,161.303101 148.226379,161.888321 138.779816,163.072510 
M171.328476,151.789841 
	C182.362320,139.712494 187.287231,119.039589 181.158356,111.419380 
	C176.445343,114.504219 171.891113,117.813293 167.016876,120.553032 
	C164.068665,122.210182 162.920074,123.904778 163.883987,127.266457 
	C166.283630,135.635361 167.430725,144.138367 165.782059,152.835602 
	C165.647995,153.542831 165.870224,154.317612 165.986252,155.839539 
	C167.967712,154.337982 169.370499,153.274948 171.328476,151.789841 
z"/>
<path fill="#86CC19" opacity="1.000000" stroke="none" 
	d="
M150.634781,109.049461 
	C149.521500,110.782852 148.731750,112.911484 147.215530,114.152649 
	C145.180237,115.818764 142.857620,115.812798 141.994797,112.555862 
	C141.089951,109.140366 140.279800,105.699783 138.638840,102.340714 
	C139.290405,107.481071 139.941971,112.621429 140.650421,118.210434 
	C137.312897,116.014526 134.172699,113.948448 131.032486,111.882362 
	C130.744171,112.155731 130.455841,112.429100 130.167511,112.702469 
	C132.419342,115.443962 134.671173,118.185463 137.347778,121.444084 
	C132.746658,124.116508 128.164581,123.726959 123.639397,122.196129 
	C118.255028,120.374641 113.116043,117.590790 107.616180,116.429840 
	C103.857140,115.636368 99.662643,116.905769 95.190628,117.293884 
	C93.502777,113.406456 97.186592,110.257927 99.486610,108.437057 
	C109.242676,100.713440 120.125977,99.230972 132.156662,105.961792 
	C131.065292,95.742203 132.308426,86.403328 140.323624,80.496452 
	C144.933548,77.099144 151.285248,76.065292 157.460480,74.107643 
	C157.642166,75.179520 157.216278,76.111298 156.499939,77.221504 
	C155.133270,79.312790 153.927338,81.165268 153.003799,83.149208 
	C149.455994,90.770546 151.474518,98.863663 151.099167,107.151299 
	C150.925491,108.046143 150.780136,108.547806 150.634781,109.049461 
z"/>
<path fill="#6E5D4A" opacity="1.000000" stroke="none" 
	d="
M150.742905,109.377655 
	C150.780136,108.547806 150.925491,108.046143 151.391907,106.927917 
	C152.281357,103.463043 152.919968,100.626625 153.404160,97.764076 
	C154.571350,90.863579 155.666306,83.950867 156.790390,77.043076 
	C157.216278,76.111298 157.642166,75.179520 157.864532,74.080513 
	C159.293060,69.745544 161.731689,65.865959 159.024612,60.990471 
	C157.362335,57.996693 157.161865,53.789356 160.636963,52.042561 
	C163.326294,50.690739 167.190948,50.516949 170.195953,51.233463 
	C174.388885,52.233223 175.288040,56.816738 173.786774,59.731461 
	C170.656143,65.809593 172.428360,71.891731 172.217773,77.950951 
	C171.975555,84.920441 171.819061,91.921959 172.228699,98.874008 
	C172.469101,102.953987 170.779678,105.606201 167.823792,107.607971 
	C164.306488,109.989929 160.588974,112.112946 156.812515,114.066505 
	C151.744583,116.688141 151.694916,116.571655 151.334503,111.105301 
	C151.303192,110.630257 151.018188,110.171936 150.742905,109.377655 
z"/>
<path fill="#89CE1E" opacity="1.000000" stroke="none" 
	d="
M126.558731,85.229027 
	C129.168747,87.697540 129.927704,90.559685 127.493599,92.701118 
	C125.964638,94.046227 123.035797,94.755188 120.996109,94.369308 
	C116.509888,93.520599 117.594505,89.408791 118.427933,86.791458 
	C118.817215,85.568901 122.239326,85.252464 124.327309,84.670609 
	C124.877609,84.517258 125.578537,84.904442 126.558731,85.229027 
z"/>
<path fill="#7E6E5E" opacity="1.000000" stroke="none" 
	d="
M171.050888,152.000885 
	C169.370499,153.274948 167.967712,154.337982 165.986252,155.839539 
	C165.870224,154.317612 165.647995,153.542831 165.782059,152.835602 
	C167.430725,144.138367 166.283630,135.635361 163.883987,127.266457 
	C162.920074,123.904778 164.068665,122.210182 167.016876,120.553032 
	C171.891113,117.813293 176.445343,114.504219 181.158356,111.419380 
	C187.287231,119.039589 182.362320,139.712494 171.050888,152.000885 
z"/>
<path fill="#000000" opacity="1.000000" stroke="none" 
	d="
M156.499939,77.221504 
	C155.666306,83.950867 154.571350,90.863579 153.404160,97.764076 
	C152.919968,100.626625 152.281357,103.463043 151.420227,106.534729 
	C151.474518,98.863663 149.455994,90.770546 153.003799,83.149208 
	C153.927338,81.165268 155.133270,79.312790 156.499939,77.221504 
z"/>
</svg>